<svg width="1172" height="582" viewBox="0 0 1172 582" fill="none" xmlns="http://www.w3.org/2000/svg">
<path d="M76.3513 321.436C-26.5011 314.848 -22.3783 203.145 76.35 99.6994C288.586 -89.7175 509.858 44.1097 534.346 99.6994C558.835 155.289 515.106 202.021 368.174 187.609C221.242 173.197 204.917 329.671 76.3513 321.436Z" stroke="white" stroke-width="1.5"/>
<path d="M258.379 210.584C252.389 197.061 265.749 177.729 288.22 167.405C310.691 157.081 333.764 159.674 339.754 173.197C345.745 186.72 332.384 206.052 309.913 216.376C287.442 226.7 264.369 224.107 258.379 210.584Z" stroke="white" stroke-width="1.5"/>
<path d="M606.219 579.567C590.611 573.697 586.057 547.652 596.048 521.392C606.038 495.133 626.79 478.603 642.398 484.472C658.006 490.341 662.559 516.387 652.569 542.646C642.578 568.906 621.827 585.436 606.219 579.567Z" stroke="white" stroke-width="1.5"/>
<path d="M798.449 94.8477C778.266 -4.65967 884.291 -28.6995 1006.82 39.3392C1239.24 193.852 1170.22 437.881 1124.26 475.096C1078.3 512.311 1023.17 482.404 999.04 338.999C974.906 195.594 823.678 219.232 798.449 94.8477Z" stroke="white" stroke-width="1.5"/>
</svg>
